<svg
   xmlns="http://www.w3.org/2000/svg"
   width="24"
   height="24"
   viewBox="0 0 24 24"
>
  <path
     d="M0 0h24v24H0V0z"
     fill="none" />
  <path
     d="M19.65 9.04l-4.84-.42-1.89-4.45c-.34-.81-1.5-.81-1.84 0L9.19 8.63l-4.83.41c-.88.07-1.24 1.17-.57 1.75l3.67 3.18-1.1 4.72c-.2.86.73 1.54 1.49 1.08l4.15-2.5 4.15 2.51c.76.46 1.69-.22 1.49-1.08l-1.1-4.73 3.67-3.18c.67-.58.32-1.68-.56-1.75zM12 15.4l-3.76 2.27 1-4.28-3.32-2.88 4.38-.38L12 6.1l1.71 4.04 4.38.38-3.32 2.88 1 4.28L12 15.4z" />
  <path
     style="fill:#ffffff;fill-opacity:1"
     d="m 12,6.099218 -1.699219,4.03125 -4.380859,0.378907 3.320312,2.880859 -1,4.279297 L 12,15.4 l 3.769531,2.279297 -1,-4.279297 3.320313,-2.88086 -4.378906,-0.378906 z" />
</svg>
