<svg xmlns="http://www.w3.org/2000/svg" width="24" height="24" viewBox="0 0 24 24"><path fill="none" d="M0 0h24v24H0z"/><path class="stroke" d="M 12 3.5625 C 11.625 3.5625 11.250078 3.7649219 11.080078 4.1699219 L 9.1894531 8.6308594 L 4.359375 9.0390625 C 3.479375 9.1090625 3.1190625 10.209063 3.7890625 10.789062 L 7.4609375 13.970703 L 6.359375 18.689453 C 6.159375 19.549453 7.0896094 20.229531 7.8496094 19.769531 L 12 17.269531 L 16.150391 19.779297 C 16.910391 20.239297 17.840625 19.559219 17.640625 18.699219 L 16.539062 13.970703 L 20.210938 10.789062 C 20.880938 10.209062 20.530391 9.1090625 19.650391 9.0390625 L 14.810547 8.6191406 L 12.919922 4.1699219 C 12.749922 3.7649219 12.375 3.5625 12 3.5625 z "/></svg>
